Coordinates
version=1
nRows=19
nColumns=24
inDegrees=yes

Units are S.I. units (second, meters, Newtons, ...)
Angles are in degrees.

endheader
time	pelvis_tilt	pelvis_list	pelvis_rotation	pelvis_tx	pelvis_ty	pelvis_tz	hip_flexion_r	hip_adduction_r	hip_rotation_r	knee_angle_r	ankle_angle_r	subtalar_angle_r	mtp_angle_r	hip_flexion_l	hip_adduction_l	hip_rotation_l	knee_angle_l	ankle_angle_l	subtalar_angle_l	mtp_angle_l	lumbar_extension	lumbar_bending	lumbar_rotation
      3.40000000	     -1.89822724	     -5.67104238	     -2.87145352	     -1.20068076	      0.93770234	      0.22922927	     11.74754771	     13.54768094	      8.78637561	    -22.50045774	     15.96358409	    -12.98771771	      0.00000000	     24.28924850	     -7.07364077	     -4.28038251	    -69.54532670	     13.74691624	     -9.62985134	      0.00000000	     -9.80067180	      6.75677093	     -5.20461468
      3.40500000	     -1.84219552	     -5.46832244	     -3.07034297	     -1.19391388	      0.93876694	      0.22960658	     10.92607637	     13.31624036	      9.06479142	    -21.98154366	     16.09341438	    -12.92873747	      0.00000000	     24.77980305	     -6.87434922	     -4.33066352	    -68.71613634	     14.37649541	     -8.80449557	      0.00000000	     -9.87623402	      6.47207233	     -5.02632077
      3.41000000	     -1.74126736	     -5.28459845	     -3.27679130	     -1.18717261	      0.93978748	      0.23000789	     10.05044990	     13.10491355	      9.40391597	    -21.45037981	     16.24393690	    -12.90096476	      0.00000000	     25.19848459	     -6.69549418	     -4.38727953	    -67.81475120	     14.94625317	     -8.07858944	      0.00000000	    -10.01155920	      6.20057779	     -4.76700014
      3.41500000	     -1.67203954	     -5.09177601	     -3.49511921	     -1.18043560	      0.94068968	      0.23039583	      9.23329040	     12.87711055	      9.70001238	    -20.95246564	     16.38560720	    -12.86912562	      0.00000000	     25.61291034	     -6.49897216	     -4.44534594	    -66.81805078	     15.48590931	     -7.45406367	      0.00000000	    -10.10607879	      5.92349972	     -4.55683980
      3.42000000	     -1.60746839	     -4.90511659	     -3.70779906	     -1.17371590	      0.94149186	      0.23077992	      8.43157928	     12.65051666	      9.99100889	    -20.46372888	     16.53333532	    -12.84119430	      0.00000000	     26.00972847	     -6.30167146	     -4.49390962	    -65.74439636	     15.95329494	     -6.95316643	      0.00000000	    -10.19153102	      5.65102656	     -4.33867700
      3.42500000	     -1.55990851	     -4.72651380	     -3.92275050	     -1.16700096	      0.94216921	      0.23116694	      7.66762645	     12.42960782	     10.25462723	    -20.00151593	     16.68319076	    -12.81681269	      0.00000000	     26.39305041	     -6.10697340	     -4.53616754	    -64.58891637	     16.38964802	     -6.56749571	      0.00000000	    -10.25397868	      5.38776956	     -4.13248376
      3.43000000	     -1.51450075	     -4.55519938	     -4.14040889	     -1.16029808	      0.94275616	      0.23152616	      6.92128627	     12.21139095	     10.51835215	    -19.56168374	     16.82455640	    -12.79936532	      0.00000000	     26.74688064	     -5.90762227	     -4.56236212	    -63.35166436	     16.77850115	     -6.28951747	      0.00000000	    -10.31643119	      5.13692727	     -3.92332290
      3.43500000	     -1.47400788	     -4.39245557	     -4.36056875	     -1.15359679	      0.94323852	      0.23186070	      6.19630105	     11.99909091	     10.77474075	    -19.14645087	     16.97044307	    -12.79813120	      0.00000000	     27.07445255	     -5.70504295	     -4.56661270	    -62.03779532	     17.12382107	     -6.10197709	      0.00000000	    -10.37147123	      4.90318984	     -3.71426492
      3.44000000	     -1.43718430	     -4.24073182	     -4.57615027	     -1.14689805	      0.94361444	      0.23219949	      5.48914194	     11.79736146	     11.02039336	    -18.75132066	     17.11945202	    -12.81646677	      0.00000000	     27.37700742	     -5.50815132	     -4.55108299	    -60.65190147	     17.43148281	     -5.99370335	      0.00000000	    -10.42089830	      4.67828049	     -3.50981063
      3.44500000	     -1.42753277	     -4.09263186	     -4.78842887	     -1.14017842	      0.94385684	      0.23253060	      4.82445584	     11.59791823	     11.23596073	    -18.37501085	     17.27694138	    -12.84388005	      0.00000000	     27.67869865	     -5.31370373	     -4.52224910	    -59.19604046	     17.70708796	     -5.94102333	      0.00000000	    -10.43207046	      4.45985036	     -3.34166176
      3.45000000	     -1.46787100	     -3.96548465	     -4.96316098	     -1.13352502	      0.94391220	      0.23278522	      4.24818908	     11.42201032	     11.40666896	    -18.05021893	     17.43892592	    -12.86653051	      0.00000000	     28.02218393	     -5.10107721	     -4.37168177	    -57.69110445	     17.97473069	     -5.88548986	      0.00000000	    -10.39694436	      4.27875502	     -3.17900926
      3.45500000	     -1.45122694	     -3.81578750	     -5.17998346	     -1.12682303	      0.94399890	      0.23309569	      3.60692061	     11.21967385	     11.63526541	    -17.72668359	     17.60645330	    -12.91956143	      0.00000000	     28.24780760	     -4.88709345	     -4.28692966	    -56.08413373	     18.17190599	     -5.93467373	      0.00000000	    -10.42033823	      4.05868120	     -2.98815646
      3.46000000	     -1.33565997	     -3.70552986	     -5.41014494	     -1.12009325	      0.94416525	      0.23339383	      2.84063386	     11.04520762	     11.91527506	    -17.37697364	     17.74220000	    -13.01030397	      0.00000000	     28.32685280	     -4.71665249	     -4.21405143	    -54.40506763	     18.31569733	     -6.04322513	      0.00000000	    -10.56708679	      3.87934188	     -2.73384716
      3.46500000	     -1.40498762	     -3.59405666	     -5.56420634	     -1.11341394	      0.94392523	      0.23360848	      2.32956344	     10.88740625	     12.03583879	    -17.10683207	     17.91950885	    -13.09038428	      0.00000000	     28.60761511	     -4.51209608	     -3.97559125	    -52.70377480	     18.51921519	     -6.00472206	      0.00000000	    -10.49557015	      3.72544946	     -2.61043473
      3.47000000	     -1.33999096	     -3.45161958	     -5.77257799	     -1.10663498	      0.94387511	      0.23387326	      1.64270123	     10.67916258	     12.26397740	    -16.79338933	     18.08759613	    -13.19301908	      0.00000000	     28.67252714	     -4.30293046	     -3.85686743	    -50.87829154	     18.59969907	     -6.14278009	      0.00000000	    -10.56737006	      3.51274927	     -2.44278018
      3.47500000	     -1.27979277	     -3.34765308	     -5.94307060	     -1.09995384	      0.94372251	      0.23406230	      0.98691623	     10.51121609	     12.45351038	    -16.51744121	     18.24296312	    -13.30371291	      0.00000000	     28.72810991	     -4.09860865	     -3.58872142	    -49.01777818	     18.69919909	     -6.16830068	      0.00000000	    -10.66409238	      3.35074373	     -2.24870642
      3.48000000	     -1.32612686	     -3.22352139	     -6.09303676	     -1.09320738	      0.94333985	      0.23424773	      0.45803209	     10.33261382	     12.56383336	    -16.25802333	     18.43030283	    -13.40583652	      0.00000000	     28.87158258	     -3.89333804	     -3.31628373	    -47.10504658	     18.78150027	     -6.14901605	      0.00000000	    -10.61339958	      3.18136109	     -2.15773690
      3.48500000	     -1.32398614	     -3.09734357	     -6.23599648	     -1.08647932	      0.94298456	      0.23437253	     -0.11635077	     10.14202009	     12.68821284	    -16.00959321	     18.61678815	    -13.49925683	      0.00000000	     28.92376807	     -3.67370832	     -3.00241922	    -45.11658862	     18.79404614	     -6.15566195	      0.00000000	    -10.62958084	      3.00839300	     -2.02740392
      3.49000000	     -1.27258629	     -2.98074515	     -6.37183006	     -1.07979749	      0.94264680	      0.23446999	     -0.73276469	      9.95483010	     12.80340374	    -15.77669640	     18.79795329	    -13.59209466	      0.00000000	     28.88807332	     -3.45433050	     -2.62140483	    -43.06823192	     18.75249542	     -6.14327281	      0.00000000	    -10.72470682	      2.83999398	     -1.87989961
